<?xml version="1.0" encoding="UTF-8" standalone="no"?>
<svg
   xmlns="http://www.w3.org/2000/svg"
   width="332"
   height="48"
   viewBox="0 0 87.841664 12.7"
   version="1.1">
  <path
     d="M 2.1894691,-5e-5 -5.1755e-5,2.18947 0.74866833,2.93819 2.9381892,0.74867 Z m 1.1228974,1.1229 -2.1895208,2.18952 9.0135083,9.01351 2.189521,-2.18952 z m 9.3876855,9.38769 -2.188795,2.18952 h 2.188792 z" />
  <path
     d="M 6.7245428,3.78594 8.9140647,5.97546 12.700052,2.18947 10.51053,-5e-5 9.7621758,0.7483 10.856571,1.8427 10.482394,2.21688 9.3879985,1.12248 8.6396438,1.87083 9.7340393,2.96523 9.359862,3.33941 8.2654665,2.24501 7.5171118,2.99337 8.6115073,4.08776 8.23733,4.46194 7.1429345,3.36754 Z" />
  <path
     d="M 1.1224794,9.38727 2.2172405,10.48203 1.8430632,10.85621 0.74866765,9.76181 -5.2433774e-5,10.51053 2.1894694,12.70005 5.9758226,8.91443 3.7855696,6.72418 3.3675433,7.1422 4.4623045,8.23696 4.0881271,8.61114 2.993366,7.51638 2.2450114,8.26474 3.3397725,9.3595 2.9655952,9.73367 1.8708341,8.63891 Z" />
  <path
     d="m 27.744825,3.8893216 q 0,-0.477636 -0.196172,-0.8188046 Q 27.352481,2.7293484 26.874845,2.5331765 26.542206,2.3967091 26.098687,2.3711214 25.655167,2.3370046 25.066652,2.3370046 h -1.185561 v 3.4202149 h 1.006447 q 0.784688,0 1.313499,-0.076763 0.528811,-0.076763 0.887038,-0.3496977 Q 27.429244,5.0663531 27.58277,4.7507722 27.744825,4.426662 27.744825,3.8893216 Z M 32.853824,12.7 H 28.853623 L 25.390762,8.0430489 H 23.881091 V 12.7 h -3.25816 V -1.1734664e-7 h 5.492814 q 1.125856,0 1.936132,0.12793821734664 0.810275,0.12793821 1.5182,0.55439892 0.716454,0.42646068 1.134385,1.10879788 0.426461,0.6738079 0.426461,1.6973136 0,1.4073203 -0.65675,2.2943586 -0.64822,0.8870383 -1.859368,1.4755541 z" />
  <path
     d="M 52.01044,12.7 H 48.624342 L 47.745833,10.132706 H 43.037706 L 42.159197,12.7 H 38.858391 L 43.549459,-1.1734664e-7 h 3.769913 z M 46.952616,7.8042309 45.39177,3.2496305 43.830923,7.8042309 Z" />
  <path
     d="M 70.996469,-1.1734664e-7 66.313931,7.7871724 V 12.7 H 63.038713 V 7.9406983 L 58.279411,-1.1734664e-7 h 3.718737 L 64.744555,4.9128273 67.397141,-1.1734664e-7 Z" />
  <path
     d="M 87.841667,12.7 H 78.655703 V -1.1734664e-7 h 9.185964 V 2.4564136 h -5.927804 v 2.192008 h 5.501343 v 2.4564137 h -5.501343 v 3.1387507 h 5.927804 z" />
</svg>
